<?xml version="1.0" encoding="UTF-8" standalone="no"?>
<!-- Created with Inkscape (http://www.inkscape.org/) -->

<svg
   width="121.26738mm"
   height="19.433298mm"
   viewBox="0 0 121.26738 19.433298"
   version="1.1"
   id="svg85505"
   inkscape:version="1.1.2 (0a00cf5339, 2022-02-04)"
   sodipodi:docname="dreamhouse-logo.svg"
   xmlns:inkscape="http://www.inkscape.org/namespaces/inkscape"
   xmlns:sodipodi="http://sodipodi.sourceforge.net/DTD/sodipodi-0.dtd"
   xmlns="http://www.w3.org/2000/svg"
   xmlns:svg="http://www.w3.org/2000/svg">
  <sodipodi:namedview
     id="namedview85507"
     pagecolor="#ffffff"
     bordercolor="#666666"
     borderopacity="1.0"
     inkscape:pageshadow="2"
     inkscape:pageopacity="0.0"
     inkscape:pagecheckerboard="0"
     inkscape:document-units="mm"
     showgrid="false"
     inkscape:zoom="0.53094837"
     inkscape:cx="662.02294"
     inkscape:cy="210.9433"
     inkscape:window-width="1440"
     inkscape:window-height="863"
     inkscape:window-x="0"
     inkscape:window-y="0"
     inkscape:window-maximized="1"
     inkscape:current-layer="text85398" />
  <defs
     id="defs85502" />
  <g
     inkscape:label="Layer 1"
     inkscape:groupmode="layer"
     id="layer1"
     transform="translate(-54.478725,-92.266725)">
    <g
       id="g85400"
       transform="matrix(1.7979232,0,0,1.7979232,318.64287,1065.7072)">
      <path
         id="path85394"
         style="fill:#8d6142;fill-opacity:1;stroke-width:0.0846667"
         d="m -142.74669,-541.4246 c -0.0933,0.0134 -0.96993,0.5308 -1.94769,1.1498 -0.97776,0.61899 -1.86305,1.17887 -1.96783,1.24489 l -0.19069,0.12041 v 2.83392 2.83446 h 4.06487 4.06538 l -0.0222,-2.81482 -0.0222,-2.81533 -1.90531,-1.28881 c -1.18459,-0.80148 -1.96883,-1.27963 -2.07429,-1.26452 z m 0.0475,0.98702 c 0.10492,0 0.84181,0.50927 0.84181,0.58188 0,0.0341 -0.21115,0.19354 -0.46922,0.35398 -0.25808,0.16044 -0.8966,0.56587 -1.41852,0.90072 -0.52192,0.33483 -1.2259,0.78243 -1.56476,0.99476 -0.33886,0.21232 -0.63429,0.38602 -0.65629,0.38602 -0.0221,0 -0.0403,-0.26082 -0.0403,-0.57928 v -0.57877 l 0.86816,-0.53898 c 0.47731,-0.29628 1.20544,-0.75936 1.61799,-1.02942 0.41256,-0.27003 0.78204,-0.49091 0.82114,-0.49091 z m 1.66967,1.11104 0.72812,0.48162 0.7276,0.48162 0.001,0.57722 0.001,0.57724 -0.23255,-0.16124 c -0.12806,-0.0886 -0.4509,-0.30369 -0.71727,-0.47799 l -0.4842,-0.31679 -1.20923,0.7829 c -0.66496,0.43056 -1.62821,1.05432 -2.14044,1.38597 -0.51204,0.33152 -1.06894,0.68712 -1.23765,0.79013 -0.16834,0.10271 -0.32977,0.18706 -0.35915,0.18706 -0.0294,0 -0.0537,-0.24829 -0.0537,-0.5514 v -0.55086 l 1.07951,-0.70125 c 0.59373,-0.38563 1.43554,-0.92808 1.87017,-1.2056 0.43465,-0.27752 1.06859,-0.6835 1.4087,-0.90175 z m 0.0181,2.27531 c 0.0646,0 0.41518,0.19537 0.77877,0.43408 l 0.66094,0.43407 v 0.53952 c 0,0.2968 -0.0206,0.54001 -0.046,0.54001 -0.0254,0 -0.33016,-0.19196 -0.67748,-0.42632 -0.72221,-0.48734 -0.57012,-0.50824 -1.73168,0.24029 -0.3957,0.25501 -1.00405,0.63609 -1.35134,0.84699 -0.62155,0.3774 -0.64363,0.38369 -1.45831,0.40669 -0.45492,0.0128 -0.84685,-0.008 -0.87075,-0.0471 -0.0239,-0.0387 0.86131,-0.63219 1.96681,-1.31876 1.10549,-0.68657 2.14548,-1.33874 2.31097,-1.44902 0.16549,-0.11027 0.35336,-0.2005 0.41806,-0.2005 z m 0.0165,2.10942 0.62683,0.39068 c 0.3449,0.21498 0.62735,0.4217 0.62735,0.4594 0,0.0859 -2.36877,0.0764 -2.42207,-0.01 -0.0215,-0.0348 0.0668,-0.12747 0.19637,-0.20566 0.12955,-0.0782 0.40132,-0.25307 0.60358,-0.38862 z m -5.77484,4.31861 c -0.0525,-7.7e-4 -0.10522,0.002 -0.15762,0.007 h 0.27596 c -0.0395,-0.004 -0.0787,-0.006 -0.11834,-0.007 z m 1.94923,0.006 c -0.002,8e-5 -0.003,4.5e-4 -0.005,5.3e-4 h 0.046 c -0.0127,-3e-5 -0.0296,-8.7e-4 -0.0408,-5.3e-4 z" />
      <g
         aria-label="DREAM HOUSE"
         id="text85398"
         style="font-size:9.70936px;line-height:1.25;fill:#3c322c;stroke-width:0.242734">
        <path
           d="m -134.84147,-540.47563 h 1.82536 q 1.09716,0 1.67001,0.60198 0.58256,0.60198 0.58256,1.60204 v 2.66037 q 0,1.94187 -2.05838,1.94187 h -2.01955 z m 3.0099,2.10693 q 0,-0.53402 -0.27186,-0.77675 -0.26215,-0.25245 -0.81559,-0.25245 h -0.85442 v 4.74788 h 0.79617 q 0.5243,0 0.835,-0.15535 0.3107,-0.16506 0.3107,-0.70878 z"
           style="font-weight:bold;font-family:'Advent Pro';-inkscape-font-specification:'Advent Pro Bold'"
           id="path10" />
        <path
           d="m -126.7633,-535.5627 h -1.41757 v 1.89333 h -1.06803 v -6.79655 h 2.30112 q 0.64082,0 1.06803,0.3204 0.42721,0.3107 0.63111,0.83501 0.21361,0.5243 0.21361,1.15541 0,0.47576 -0.0388,0.8253 -0.0388,0.34954 -0.2039,0.7282 -0.15535,0.37867 -0.50488,0.67966 l 0.75733,2.25257 h -1.08745 z m -0.43692,-1.01948 q 0.47576,0 0.69907,-0.24273 0.23303,-0.25245 0.28157,-0.57286 0.0583,-0.32041 0.0583,-0.75733 0,-0.51459 -0.14564,-0.77675 -0.14564,-0.27186 -0.40779,-0.35924 -0.26216,-0.0971 -0.67966,-0.0971 h -0.78646 v 2.80601 z"
           style="font-weight:bold;font-family:'Advent Pro';-inkscape-font-specification:'Advent Pro Bold'"
           id="path12" />
        <path
           d="m -123.77283,-540.46592 h 3.24293 v 1.06802 h -2.1749 v 1.71856 h 1.33019 l -0.30099,1.01948 h -1.0292 v 2.01955 h 2.15548 v 0.97094 h -3.22351 z"
           style="font-weight:bold;font-family:'Advent Pro';-inkscape-font-specification:'Advent Pro Bold'"
           id="path14" />
        <path
           d="m -116.66559,-535.44619 h -1.56321 l -0.37866,1.77682 h -1.20396 l 1.59233,-6.79655 h 1.50495 l 1.71856,6.79655 h -1.27193 z m -1.31076,-1.13599 h 1.05832 l -0.55344,-2.09722 z"
           style="font-weight:bold;font-family:'Advent Pro';-inkscape-font-specification:'Advent Pro Bold'"
           id="path16" />
        <path
           d="m -110.00498,-537.26184 -1.136,3.59247 h -0.81558 l -1.11658,-3.58276 v 3.58276 h -1.06803 v -6.79655 h 1.06803 l 1.52437,4.49543 1.54379,-4.49543 h 1.06803 v 6.79655 h -1.06803 z"
           style="font-weight:bold;font-family:'Advent Pro';-inkscape-font-specification:'Advent Pro Bold'"
           id="path18" />
        <path
           d="m -101.58698,-536.65986 h -2.04868 v 2.99049 h -1.06803 v -6.79655 h 1.06803 v 2.78658 h 2.04868 v -2.78658 h 1.05832 v 6.79655 h -1.05832 z"
           style="font-weight:bold;font-family:'Advent Pro';-inkscape-font-specification:'Advent Pro Bold'"
           id="path20" />
        <path
           d="m -95.062302,-535.4656 q 0,0.98064 -0.60198,1.44669 -0.592271,0.45634 -1.427276,0.45634 -0.524305,0 -0.990355,-0.18448 -0.466049,-0.19418 -0.767039,-0.6214 -0.291281,-0.42721 -0.291281,-1.09715 v -3.12642 q 0,-1.00006 0.543724,-1.51466 0.553434,-0.51459 1.51466,-0.51459 0.961227,0 1.485533,0.54372 0.534014,0.54372 0.534014,1.49524 z m -1.068029,-2.76717 q 0,-0.40779 -0.06797,-0.66995 -0.06797,-0.26215 -0.281571,-0.40779 -0.213606,-0.15535 -0.621399,-0.15535 -0.407793,0 -0.621399,0.14564 -0.213606,0.14564 -0.281572,0.40779 -0.06797,0.25245 -0.06797,0.66995 v 2.5924 q 0,0.46605 0.233024,0.73791 0.242734,0.26215 0.737912,0.26215 0.45634,0 0.708783,-0.28157 0.262153,-0.28157 0.262153,-0.73791 z"
           style="font-weight:bold;font-family:'Advent Pro';-inkscape-font-specification:'Advent Pro Bold'"
           id="path22" />
        <path
           d="m -89.615353,-540.47563 v 5.00032 q 0,0.98064 -0.60198,1.42727 -0.592271,0.44663 -1.436985,0.44663 -0.844715,0 -1.446695,-0.44663 -0.60198,-0.44663 -0.60198,-1.42727 v -5.00032 h 1.068029 v 4.5731 q 0,0.66024 0.194188,0.96123 0.203896,0.29128 0.776748,0.29128 0.582562,0 0.776749,-0.29128 0.203897,-0.30099 0.203897,-0.96123 v -4.5731 z"
           style="font-weight:bold;font-family:'Advent Pro';-inkscape-font-specification:'Advent Pro Bold'"
           id="path24" />
        <path
           d="m -87.421036,-535.5627 q 0.04855,0.42721 0.349537,0.68937 0.30099,0.26215 0.786458,0.26215 0.407793,0 0.660236,-0.13593 0.262153,-0.13593 0.378665,-0.33012 0.116513,-0.19419 0.116513,-0.37866 0,-0.42722 -0.213606,-0.70879 -0.203897,-0.29128 -0.514596,-0.45634 -0.300991,-0.17477 -0.825296,-0.39808 -0.572852,-0.24274 -0.91268,-0.43692 -0.330118,-0.2039 -0.572852,-0.54373 -0.233025,-0.34953 -0.233025,-0.88355 0,-0.42721 0.242734,-0.80588 0.242734,-0.38837 0.737912,-0.6311 0.495177,-0.24274 1.21367,-0.24274 0.475758,0 0.786458,0.068 0.310699,0.068 0.631108,0.22331 l -0.339827,1.00978 q -0.349537,-0.11652 -0.572853,-0.16506 -0.213606,-0.0485 -0.495177,-0.0485 -0.553434,0 -0.815586,0.19419 -0.262153,0.19418 -0.233025,0.49517 0.02913,0.24274 0.291281,0.41751 0.271862,0.17477 0.835005,0.42721 0.660236,0.29128 1.097158,0.55343 0.436921,0.26216 0.74762,0.7185 0.320409,0.45634 0.320409,1.11657 0,0.86413 -0.572852,1.42728 -0.572852,0.56314 -1.747685,0.56314 -0.718493,0 -1.233089,-0.26215 -0.504886,-0.27186 -0.776748,-0.68937 -0.262153,-0.42721 -0.281572,-0.88355 z"
           style="font-weight:bold;font-family:'Advent Pro';-inkscape-font-specification:'Advent Pro Bold'"
           id="path26" />
        <path
           d="m -82.72172,-540.46592 h 3.242927 v 1.06802 h -2.174897 v 1.71856 h 1.330182 l -0.30099,1.01948 h -1.029192 v 2.01955 h 2.155478 v 0.97094 h -3.223508 z"
           style="font-weight:bold;font-family:'Advent Pro';-inkscape-font-specification:'Advent Pro Bold'"
           id="path28" />
      </g>
    </g>
  </g>
</svg>
