<?xml version="1.0" encoding="UTF-8" standalone="no"?>
<!-- Created with Inkscape (http://www.inkscape.org/) -->

<svg
   version="1.1"
   id="svg1"
   width="61.336243"
   height="57"
   viewBox="0 0 61.336243 57"
   sodipodi:docname="medal.svg"
   inkscape:version="1.3 (0e150ed6c4, 2023-07-21)"
   xmlns:inkscape="http://www.inkscape.org/namespaces/inkscape"
   xmlns:sodipodi="http://sodipodi.sourceforge.net/DTD/sodipodi-0.dtd"
   xmlns="http://www.w3.org/2000/svg"
   xmlns:svg="http://www.w3.org/2000/svg">
  <defs
     id="defs1" />
  <sodipodi:namedview
     id="namedview1"
     pagecolor="#ffffff"
     bordercolor="#000000"
     borderopacity="0.25"
     inkscape:showpageshadow="2"
     inkscape:pageopacity="0.0"
     inkscape:pagecheckerboard="0"
     inkscape:deskcolor="#d1d1d1"
     inkscape:zoom="1.3810679"
     inkscape:cx="-128.88577"
     inkscape:cy="45.254834"
     inkscape:window-width="1600"
     inkscape:window-height="831"
     inkscape:window-x="0"
     inkscape:window-y="32"
     inkscape:window-maximized="1"
     inkscape:current-layer="g1" />
  <g
     inkscape:groupmode="layer"
     inkscape:label="Image"
     id="g1"
     transform="translate(-8.4435504,-13.036114)">
    <path
       style="fill:#000000"
       d="M 31.398462,67.574423 C 27.941854,64.370947 26.477639,60.368758 27.252038,56.240858 27.807914,53.27778 26.839959,51.328278 18.158843,37.926775 L 8.4435504,22.928759 13.315496,17.982436 18.187441,13.036114 h 21.15075 21.15075 l 4.645426,4.966336 4.645427,4.966337 -9.657959,14.783663 c -9.365467,14.335941 -9.65182,14.944075 -9.455306,20.080386 0.18483,4.830908 -0.101043,5.600417 -3.250626,8.75 -3.008275,3.008275 -4.091667,3.453278 -8.407255,3.453278 -3.877672,0 -5.531068,-0.534829 -7.610186,-2.461691 z m 14.566281,-2.58658 c 2.702157,-2.702157 2.984305,-3.525178 2.484911,-7.248438 -1.129563,-8.421514 -9.904953,-11.639213 -15.763952,-5.780214 -2.164103,2.164102 -2.923077,3.871795 -2.923077,6.576923 0,2.705128 0.758974,4.412821 2.923077,6.576923 4.085826,4.085826 9.115439,4.038407 13.279041,-0.125194 z m -7.202118,-4.392712 c 0,-1.892541 -0.45,-3.719098 -1,-4.059017 -1.691037,-1.045118 -1.109085,-2.5 1,-2.5 1.733333,0 2,0.666667 2,5 0,2.75 -0.45,5 -1,5 -0.55,0 -1,-1.548442 -1,-3.440983 z M 32.790119,48.367708 c 1.359878,-0.917623 2.63203,-1.789647 2.827004,-1.937831 0.194974,-0.148184 -2.891401,-5.247401 -6.858611,-11.331594 L 21.545404,24.036114 h -4.39139 c -2.415264,0 -4.391389,0.320158 -4.391389,0.711463 0,1.087165 16.190275,25.288537 16.917569,25.288537 0.35058,0 1.750046,-0.750783 3.109925,-1.668406 z M 57.012625,38.225592 c 4.2625,-6.474729 7.75,-12.316114 7.75,-12.980856 0,-0.741846 -1.533052,-1.208622 -3.969526,-1.208622 -3.815774,0 -4.157075,0.280815 -8.811589,7.25 -2.663134,3.9875 -5.898485,8.994028 -7.189669,11.125617 l -2.347607,3.875618 2.409196,1.852147 c 1.325057,1.01868 2.859195,1.853538 3.409195,1.855238 0.55,0.0017 4.4875,-5.294413 8.75,-11.769142 z M 46.62926,35.324474 c 3.373351,-5.066402 6.133365,-9.678902 6.133365,-10.25 0,-0.666536 -4.83418,-1.03836 -13.5,-1.03836 -10.177038,0 -13.5,0.309561 -13.5,1.257634 0,2.115822 13.125241,21.022799 13.955718,20.103283 0.427654,-0.473504 3.537566,-5.006155 6.910917,-10.072557 z m 15.133365,-16.78836 -3.392334,-3.5 H 38.753549 19.136807 l -2.687091,2.804719 c -1.4779,1.542595 -2.687091,3.117595 -2.687091,3.5 0,0.382404 11.563275,0.695281 25.696167,0.695281 h 25.696167 z"
       id="path1" />
  </g>
</svg>
