<?xml version="1.0" encoding="UTF-8" standalone="no"?>
<!-- Created with Inkscape (http://www.inkscape.org/) -->

<svg
   width="7.9805808mm"
   height="7.2020149mm"
   viewBox="0 0 7.9805808 7.2020149"
   version="1.1"
   id="svg1263"
   inkscape:version="1.1.2 (0a00cf5339, 2022-02-04)"
   sodipodi:docname="menu.svg"
   xmlns:inkscape="http://www.inkscape.org/namespaces/inkscape"
   xmlns:sodipodi="http://sodipodi.sourceforge.net/DTD/sodipodi-0.dtd"
   xmlns="http://www.w3.org/2000/svg"
   xmlns:svg="http://www.w3.org/2000/svg">
  <sodipodi:namedview
     id="namedview1265"
     pagecolor="#ffffff"
     bordercolor="#666666"
     borderopacity="1.0"
     inkscape:pageshadow="2"
     inkscape:pageopacity="0.0"
     inkscape:pagecheckerboard="0"
     inkscape:document-units="mm"
     showgrid="false"
     inkscape:zoom="0.4641344"
     inkscape:cx="-819.80564"
     inkscape:cy="532.17344"
     inkscape:window-width="1920"
     inkscape:window-height="1043"
     inkscape:window-x="1366"
     inkscape:window-y="0"
     inkscape:window-maximized="1"
     inkscape:current-layer="layer1" />
  <defs
     id="defs1260" />
  <g
     inkscape:label="Layer 1"
     inkscape:groupmode="layer"
     id="layer1"
     transform="translate(-322.08265,-7.230087)">
    <path
       style="fill:#483737;fill-opacity:1;stroke-width:0.0155895"
       d="m 322.62766,14.396964 c -0.27126,-0.09282 -0.4544,-0.289128 -0.52048,-0.557919 -0.0633,-0.257469 0.009,-0.51318 0.20089,-0.708455 0.0996,-0.101462 0.18933,-0.158438 0.3228,-0.204952 0.0792,-0.02761 0.21684,-0.02876 3.44207,-0.02876 3.22522,0 3.36284,0.0011 3.44207,0.02876 0.13346,0.04651 0.2232,0.10349 0.32279,0.204952 0.19168,0.195275 0.26419,0.450986 0.20089,0.708455 -0.0667,0.271535 -0.26217,0.477419 -0.53381,0.562401 -0.0976,0.03054 -0.14865,0.03099 -3.43748,0.03059 l -3.33841,-4.11e-4 z m 0.13098,-2.801623 c -0.32099,-0.04764 -0.57134,-0.272918 -0.6534,-0.587963 -0.10042,-0.385535 0.14328,-0.795942 0.5458,-0.919159 0.0895,-0.0274 0.23653,-0.02863 3.4219,-0.02863 3.18536,0 3.33238,0.0012 3.4219,0.02863 0.40251,0.123217 0.64622,0.533624 0.5458,0.919159 -0.0703,0.269776 -0.26554,0.475505 -0.53801,0.56683 -0.0822,0.02754 -0.22335,0.02883 -3.37513,0.03083 -1.80916,0.0011 -3.32515,-0.0032 -3.36886,-0.0097 z m -0.0219,-2.832553 c -0.15945,-0.02712 -0.30642,-0.106265 -0.42871,-0.230845 -0.19168,-0.195275 -0.26419,-0.450985 -0.20089,-0.708455 0.0668,-0.271535 0.26217,-0.477419 0.53381,-0.562401 0.0976,-0.03053 0.14923,-0.031 3.43194,-0.031 3.28272,0 3.33437,4.56e-4 3.43195,0.031 0.27164,0.08498 0.46705,0.290866 0.53381,0.562401 0.0941,0.382622 -0.11843,0.759355 -0.51489,0.912847 -0.0732,0.02835 -0.18586,0.02938 -3.41189,0.0312 -1.83489,10e-4 -3.35369,-0.0011 -3.37513,-0.0047 z"
       id="path58016" />
  </g>
</svg>
