<?xml version="1.0" encoding="UTF-8" standalone="no"?>
<!-- Created with Inkscape (http://www.inkscape.org/) -->

<svg
   version="1.1"
   id="svg1"
   width="60.898239"
   height="60.550205"
   viewBox="0 0 60.898239 60.550205"
   sodipodi:docname="network.svg"
   inkscape:version="1.3 (0e150ed6c4, 2023-07-21)"
   xml:space="preserve"
   xmlns:inkscape="http://www.inkscape.org/namespaces/inkscape"
   xmlns:sodipodi="http://sodipodi.sourceforge.net/DTD/sodipodi-0.dtd"
   xmlns="http://www.w3.org/2000/svg"
   xmlns:svg="http://www.w3.org/2000/svg"><defs
     id="defs1" /><sodipodi:namedview
     id="namedview1"
     pagecolor="#ffffff"
     bordercolor="#000000"
     borderopacity="0.25"
     inkscape:showpageshadow="2"
     inkscape:pageopacity="0.0"
     inkscape:pagecheckerboard="0"
     inkscape:deskcolor="#d1d1d1"
     inkscape:zoom="1.3810679"
     inkscape:cx="-130.33392"
     inkscape:cy="46.702989"
     inkscape:window-width="1600"
     inkscape:window-height="831"
     inkscape:window-x="0"
     inkscape:window-y="32"
     inkscape:window-maximized="1"
     inkscape:current-layer="g1" /><g
     inkscape:groupmode="layer"
     inkscape:label="Image"
     id="g1"
     transform="translate(-9.6496634,-11.546274)"><path
       style="fill:#000000"
       d="m 9.6496634,67.964557 c 0,-3.404959 0.5991596,-4.697013 3.4055596,-7.343783 2.42323,-2.285403 3.14877,-3.617483 2.51531,-4.618077 -2.48661,-3.927783 1.26673,-9.906217 6.21926,-9.906217 4.69297,0 8.34936,6.098854 5.93899,9.906217 -0.63346,1.000594 0.0921,2.332674 2.51531,4.618077 2.8064,2.64677 3.40557,3.938824 3.40557,7.343783 v 4.131923 h -12 H 9.6496634 Z M 31.649663,67.09648 c 0,-4.894446 -3.00794,-7 -10,-7 -6.99207,0 -10,2.105554 -10,7 v 3 h 10 10 z m -6.57143,-10.571429 c 1.86504,-1.865047 2.05417,-5.545822 0.37143,-7.228571 -1.54692,-1.546918 -6.05309,-1.546918 -7.6,0 -2.82807,2.828069 -0.24929,8.8 3.8,8.8 1.02142,0 2.56428,-0.707143 3.42857,-1.571429 z m 21.10113,14.619498 c -1.70914,-2.765456 2.5208,-12.048069 5.49012,-12.048069 0.53725,0 0.68396,-1.881952 0.34151,-4.380461 -0.49651,-3.622371 -0.2336,-4.747271 1.51913,-6.5 5.49563,-5.495635 13.241494,-0.03317 10.741225,7.574824 -0.554677,1.687812 -0.155908,2.564723 1.727453,3.798748 2.879593,1.886782 4.951431,6.352242 4.48285,9.661944 -0.323947,2.288114 -0.614866,2.351756 -12.003778,2.626004 -7.12071,0.171467 -11.91616,-0.114341 -12.29851,-0.73299 z m 22.470295,-3.41321 c 0,-1.300828 -0.932661,-3.550828 -2.07258,-5 -1.806329,-2.296375 -2.805455,-2.634859 -7.777495,-2.634859 -3.41251,0 -6.55207,0.59337 -7.81316,1.476671 -2.19952,1.540603 -3.8256,5.923367 -2.80834,7.569318 0.32428,0.524706 5.06305,0.954011 10.53059,0.954011 9.785896,0 9.940985,-0.0369 9.940985,-2.365141 z M 62.092954,55.873974 c 1.965882,-2.80669 1.962508,-4.228833 -0.01472,-6.206066 -2.380786,-2.380786 -6.137096,-1.945901 -8.020526,0.928572 -1.51742,2.315871 -1.51742,2.684128 0,5 2.06546,3.152294 5.92823,3.285693 8.035251,0.277494 z M 27.956243,32.84648 c 0.40691,-3.034378 1.44153,-5.028848 3.6172,-6.972971 2.65839,-2.375479 2.92018,-3.057234 2.05141,-5.342284 -2.32155,-6.106126 4.7092,-11.5704448 9.87844,-7.677553 2.15487,1.622806 2.64637,2.805486 2.64637,6.367878 0,3.450337 0.58118,4.946506 2.75,7.079475 2.10112,2.066395 2.75,3.659091 2.75,6.75 v 4.045455 h -12.13167 -12.13167 z m 21.98075,-0.25 c -0.32686,-4.610809 -4.32879,-7.5 -10.38855,-7.5 -6.08071,0 -9.89878,3.08165 -9.89878,7.989528 v 3.080438 l 10.25,-0.284983 10.25,-0.284983 z m -6.48733,-10.7 c 2.22098,-2.220982 1.44604,-6.730774 -1.37766,-8.017338 -4.48797,-2.044856 -8.68454,2.151709 -6.63968,6.639679 1.28656,2.8237 5.79635,3.598641 8.01734,1.377659 z m -20.3,1.2 c 0.33991,-0.55 0.81647,-1 1.05901,-1 0.24254,0 0.44099,0.45 0.44099,1 0,0.55 -0.47656,1 -1.05902,1 -0.58246,0 -0.7809,-0.45 -0.44098,-1 z"
       id="path1" /></g></svg>
