<?xml version="1.0" encoding="UTF-8" standalone="no"?>
<!-- Created with Inkscape (http://www.inkscape.org/) -->

<svg
   version="1.1"
   id="svg1"
   width="44.605038"
   height="60.721951"
   viewBox="0 0 44.605038 60.72195"
   sodipodi:docname="rocket.svg"
   inkscape:version="1.3 (0e150ed6c4, 2023-07-21)"
   xml:space="preserve"
   xmlns:inkscape="http://www.inkscape.org/namespaces/inkscape"
   xmlns:sodipodi="http://sodipodi.sourceforge.net/DTD/sodipodi-0.dtd"
   xmlns="http://www.w3.org/2000/svg"
   xmlns:svg="http://www.w3.org/2000/svg"><defs
     id="defs1" /><sodipodi:namedview
     id="namedview1"
     pagecolor="#ffffff"
     bordercolor="#000000"
     borderopacity="0.25"
     inkscape:showpageshadow="2"
     inkscape:pageopacity="0.0"
     inkscape:pagecheckerboard="0"
     inkscape:deskcolor="#d1d1d1"
     inkscape:zoom="1.3810679"
     inkscape:cx="-137.5747"
     inkscape:cy="44.530757"
     inkscape:window-width="1600"
     inkscape:window-height="831"
     inkscape:window-x="0"
     inkscape:window-y="32"
     inkscape:window-maximized="1"
     inkscape:current-layer="g1" /><g
     inkscape:groupmode="layer"
     inkscape:label="Image"
     id="g1"
     transform="translate(-17.15074,-13.519327)"><path
       style="fill:#000000"
       d="m 34.80967,72.18763 c -1.43593,-1.129507 -3.14285,-3.829507 -3.79314,-6 -1.47462,-4.921837 -3.86253,-5.168212 -7.84379,-0.809291 -3.64357,3.989198 -6.022,3.335412 -6.022,-1.655336 0,-4.159578 2.13194,-8.760303 4.98571,-10.759159 1.59037,-1.113936 2.19141,-3.213954 2.95103,-10.310705 2.12949,-19.894788 9.64827,-32.380248 17.09838,-28.393067 5.09783,2.728273 10.33683,15.767635 11.4433,28.481206 0.60821,6.988504 1.06662,8.387509 3.62561,11.06484 4.750034,4.969686 6.169753,14.43516 2.165122,14.43516 -1.236202,0 -1.284302,-0.276811 -0.262123,-1.508464 1.755202,-2.114889 0.571326,-8.247008 -2.151789,-11.145634 -1.66172,-1.768821 -2.4263,-2.048585 -3.02429,-1.106605 -1.31364,2.06931 -0.93796,6.426999 0.66905,7.760703 2.47524,2.054264 1.69093,3.171203 -0.99227,1.413101 -3.02407,-1.981443 -5.50773,-1.234904 -5.50773,1.655514 0,2.676779 -6.13818,8.931385 -8.76514,8.931385 -1.08082,0 -3.13999,-0.924142 -4.57593,-2.053648 z m 10.05915,-3.844235 c 2.94001,-4.377802 2.89716,-6.102117 -0.15165,-6.102117 -1.91144,0 -2.50147,0.590031 -2.75,2.75 -0.2511,2.182287 -0.83253,2.75 -2.81643,2.75 -1.99712,0 -2.56481,-0.565253 -2.82222,-2.810087 -0.25693,-2.24076 -0.76344,-2.747263 -2.5,-2.5 -2.63051,0.37455 -2.44084,2.929721 0.52684,7.097446 2.84344,3.993245 7.37913,3.481911 10.51346,-1.185242 z M 25.31664,57.536606 c -0.22568,-1.933111 -0.95002,-3.295328 -1.75225,-3.295328 -2.73542,0 -6.29319,8.265553 -5.00393,11.625322 0.51889,1.352212 1.18026,1.062257 3.88315,-1.702436 2.62666,-2.686715 3.18322,-3.970596 2.87303,-6.627558 z m 14.8341,2.204672 c 0,-4.333333 -0.42222,-7.5 -1,-7.5 -1.10521,0 -1.41342,13.25324 -0.33333,14.333333 1.22959,1.229584 1.33333,0.697866 1.33333,-6.833333 z m -9,-2 c 0,-1.833333 -0.53333,-2.5 -2,-2.5 -1.46666,0 -2,0.666667 -2,2.5 0,1.833333 0.53334,2.5 2,2.5 1.46667,0 2,-0.666667 2,-2.5 z m 5,0 c 0,-1.555556 -0.56666,-2.5 -1.5,-2.5 -0.93333,0 -1.5,0.944444 -1.5,2.5 0,1.555555 0.56667,2.5 1.5,2.5 0.93334,0 1.5,-0.944445 1.5,-2.5 z m 10,0 c 0,-1.833333 -0.53333,-2.5 -2,-2.5 -1.46666,0 -2,0.666667 -2,2.5 0,1.833333 0.53334,2.5 2,2.5 1.46667,0 2,-0.666667 2,-2.5 z m 5.81956,-0.25 c 0.26025,-1.832481 -0.15727,-2.25 -2.25,-2.25 -2.09274,0 -2.56956,0.476816 -2.56956,2.569551 0,2.092734 0.41752,2.510254 2.25,2.25 1.44596,-0.205359 2.3642,-1.123594 2.56956,-2.569551 z M 37.16431,52.000731 c 1.58108,-0.987396 2.39179,-0.987396 3.97287,0 1.09253,0.682301 4.08297,1.240547 6.64541,1.240547 h 4.65898 l -0.5722,-9.75 c -0.3147,-5.3625 -1.21041,-11.55 -1.99046,-13.75 -1.40307,-3.957179 -1.48147,-4.005353 -7.32321,-4.500014 l -5.90496,-0.500013 5.32048,-0.793778 5.32047,-0.793778 -2.01954,-3.206209 c -2.60806,-4.140521 -4.25318,-5.140936 -7.2267,-4.394628 -2.83636,0.711881 -6.16835,5.811735 -5.29095,8.098194 0.39794,1.037034 0.0647,1.590226 -0.95803,1.590226 -2.22322,0 -4.62306,8.641872 -5.3457,19.25 l -0.59607,8.75 h 4.66159 c 2.56388,0 5.55549,-0.558246 6.64802,-1.240547 z m -0.0136,-4.759453 c 0,-0.55 0.9,-1 2,-1 1.1,0 2,0.45 2,1 0,0.55 -0.9,1 -2,1 -1.1,0 -2,-0.45 -2,-1 z m -3.54545,-6.454546 c -3.61399,-3.613985 -3.35396,-8.610855 0.62218,-11.956561 3.54141,-2.979896 4.92793,-3.154966 8.86452,-1.119278 3.0497,1.577062 5.35829,6.497358 4.36755,9.308561 -2.21893,6.296145 -9.37853,8.243 -13.85425,3.767278 z m 9.9106,-0.618034 c 3.24991,-2.556385 3.50923,-7.053047 0.57589,-9.986381 -4.65164,-4.651643 -13.5273,0.646262 -11.36818,6.785696 0.89547,2.546233 4.48248,5.224683 7.04229,5.258523 0.61332,0.0081 2.30082,-0.917919 3.75,-2.057838 z m -7.79372,-1.498849 c -2.38078,-2.380786 -1.9459,-6.137101 0.92857,-8.020528 2.31588,-1.517417 2.68413,-1.517417 5,0 2.72392,1.784778 3.41916,6.272801 1.3,8.391957 -1.68274,1.682749 -5.36352,1.493618 -7.22857,-0.371429 z m 7.42857,-3.263755 c 0,-2.259595 -1.90522,-4.164816 -4.16481,-4.164816 -2.10583,0 -4.06417,3.239698 -3.24646,5.370631 1.23594,3.220791 7.41127,2.216063 7.41127,-1.205815 z"
       id="path1" /></g></svg>
